<svg width="32" height="32" viewBox="0 0 32 32" fill="none" xmlns="http://www.w3.org/2000/svg">
  <path d="M16 2C8.268 2 2 8.268 2 16C2 23.732 8.268 30 16 30C23.732 30 30 23.732 30 16C30 8.268 23.732 2 16 2Z" fill="#0072C3"/>
  <path d="M22 10H10C9.448 10 9 10.448 9 11V21C9 21.552 9.448 22 10 22H22C22.552 22 23 21.552 23 21V11C23 10.448 22.552 10 22 10Z" fill="white"/>
  <path d="M16 14C17.1046 14 18 13.1046 18 12C18 10.8954 17.1046 10 16 10C14.8954 10 14 10.8954 14 12C14 13.1046 14.8954 14 16 14Z" fill="#0072C3"/>
  <path d="M20 18L17 15L14 18L12 16L10 18V20H22V18H20Z" fill="#0072C3"/>
</svg>